<svg width="37" height="24" viewBox="0 0 37 24" fill="none" xmlns="http://www.w3.org/2000/svg">
<path d="M24.9953 1.358e-06C22.6168 -0.00113211 20.2921 0.707305 18.3185 2.03469C18.1826 2.12756 17.2435 2.79834 17.2022 2.83102C15.6423 4.00401 14.5948 4.20697 13.1604 3.8475C13.0727 3.82514 12.6616 3.68411 12.5326 3.63423C11.1929 3.1298 9.75163 2.95434 8.32999 3.12259C6.90836 3.29085 5.54789 3.7979 4.36292 4.60114C3.17795 5.40437 2.20311 6.48032 1.52033 7.73856C0.837542 8.99679 0.466766 10.4005 0.439163 11.8318C0.41156 13.2631 0.727935 14.6801 1.3617 15.9637C1.99546 17.2474 2.92809 18.3601 4.08121 19.2084C5.23433 20.0567 6.57424 20.6159 7.98832 20.8388C9.40241 21.0618 10.8494 20.942 12.2075 20.4896C14.3471 19.8498 15.5081 20.0252 16.8514 20.9729C17.1197 21.1621 17.7664 21.5766 17.9005 21.6746C19.4294 22.7965 21.2024 23.5401 23.0741 23.8445C24.9459 24.1488 26.8631 24.0052 28.6686 23.4254C30.4741 22.8457 32.1166 21.8463 33.4612 20.5092C34.8059 19.172 35.8146 17.5353 36.4045 15.733C36.9944 13.9308 37.1488 12.0144 36.855 10.141C36.5613 8.26757 35.8277 6.49043 34.7144 4.95527C33.6012 3.42012 32.1399 2.17065 30.4505 1.30931C28.7611 0.447965 26.8916 -0.000732191 24.9953 1.358e-06V1.358e-06Z" fill="#007858"/>
<path d="M20.6663 13.8558C20.3247 14.192 19.8792 14.4026 19.4026 14.4532C18.926 14.5038 18.4462 14.3914 18.0417 14.1344L17.2453 15.3986C17.9353 15.8346 18.7522 16.0249 19.5638 15.9388C20.3754 15.8526 21.1341 15.495 21.7172 14.9239L20.6663 13.8558ZM19.2319 8.70632C18.5741 8.69587 17.926 8.86455 17.3568 9.19429C16.7876 9.52403 16.3189 10.0024 16.0008 10.5782C15.6827 11.1539 15.5272 11.8054 15.551 12.4628C15.5748 13.1201 15.777 13.7586 16.136 14.3099L22.7027 11.5029C22.5179 10.717 22.0762 10.0152 21.4475 9.50862C20.8188 9.00206 20.0391 8.71972 19.2319 8.70632V8.70632ZM17.0561 12.5555C17.0065 12.1013 17.1042 11.6431 17.3347 11.2486C17.5653 10.8541 17.9166 10.5441 18.3368 10.3645C18.757 10.1849 19.2238 10.1451 19.6683 10.2509C20.1128 10.3568 20.5115 10.6028 20.8056 10.9526L17.0561 12.5555ZM24.7649 7.0741V14.0725L25.9792 14.5765L25.4064 15.9524L24.2025 15.4536C23.9601 15.3499 23.7541 15.1762 23.6108 14.9548C23.4508 14.6971 23.3701 14.3981 23.3786 14.0949V7.0741H24.7649ZM14.1907 7.0741V14.0725L15.3947 14.5765L14.8219 15.9524L13.618 15.4536C13.3837 15.3491 13.1847 15.1788 13.0452 14.9634C12.8847 14.7059 12.8033 14.4069 12.8113 14.1035V7.0741H14.1907Z" fill="white"/>
<path d="M28.891 14.2549C28.3812 14.0093 27.9896 13.5715 27.8022 13.0375C27.6149 12.5035 27.6471 11.9169 27.8917 11.4066L26.5485 10.76C26.1885 11.5173 26.1021 12.3759 26.3041 13.1898C26.506 14.0036 26.9838 14.7223 27.6561 15.2234C28.3284 15.7246 29.1537 15.9772 29.9913 15.9382C30.8289 15.8993 31.6271 15.5712 32.2501 15.0099L31.2456 13.9092C30.9318 14.194 30.5403 14.3791 30.121 14.4406C29.7016 14.5022 29.2735 14.4375 28.891 14.2549V14.2549ZM11.4388 14.3563V12.3303C11.4388 11.6159 11.227 10.9176 10.8301 10.3236C10.4332 9.72964 9.86914 9.2667 9.20916 8.99332C8.54918 8.71995 7.82295 8.64842 7.12232 8.78779C6.42168 8.92715 5.77811 9.27115 5.27298 9.77628C4.76785 10.2814 4.42386 10.925 4.28449 11.6256C4.14513 12.3262 4.21665 13.0525 4.49003 13.7125C4.7634 14.3724 5.22634 14.9365 5.82031 15.3334C6.41428 15.7303 7.1126 15.9421 7.82696 15.9421C8.38692 15.9422 8.93923 15.8121 9.44026 15.562L8.85892 14.2033C8.53343 14.3832 8.1666 14.4751 7.7947 14.4698C7.42281 14.4645 7.05875 14.3622 6.73854 14.173C6.41833 13.9837 6.15307 13.7142 5.96901 13.391C5.78494 13.0678 5.68845 12.7022 5.68908 12.3303C5.68713 11.9808 5.77162 11.6364 5.93503 11.3275C6.07885 11.058 6.27864 10.8223 6.52099 10.6364C6.76334 10.4504 7.04266 10.3183 7.34021 10.2491C7.49803 10.2118 7.65962 10.1927 7.8218 10.1924C8.38941 10.1919 8.93399 10.4168 9.33584 10.8177C9.73769 11.2186 9.96393 11.7626 9.96484 12.3303V14.3391C9.9563 14.6424 10.037 14.9414 10.197 15.1991C10.3413 15.4196 10.547 15.593 10.7887 15.6979L11.4663 15.9662L12.0408 14.5903L11.4388 14.3563Z" fill="white"/>
<path d="M30.74 10.4073C30.9923 10.529 31.2182 10.6992 31.4047 10.9083C31.5912 11.1173 31.7348 11.361 31.8271 11.6255C31.9194 11.89 31.9587 12.1701 31.9428 12.4498C31.9268 12.7295 31.8559 13.0033 31.7341 13.2555L33.0774 13.9005C33.441 13.1422 33.5296 12.2811 33.3282 11.4646C33.1268 10.6481 32.6478 9.92701 31.9733 9.42481C31.2987 8.9226 30.4705 8.67051 29.6306 8.71169C28.7906 8.75287 27.9911 9.08477 27.3689 9.65055L28.3733 10.753C28.688 10.4653 29.0817 10.2785 29.5036 10.2168C29.9255 10.1552 30.3562 10.2216 30.74 10.4073V10.4073Z" fill="#C7D540"/>
</svg>
