<svg width="37" height="37" viewBox="0 0 37 37" fill="none" xmlns="http://www.w3.org/2000/svg">
	<path fill-rule="evenodd" clip-rule="evenodd" d="M0 0H37V37H0V0Z" fill="white" />
	<path fill-rule="evenodd" clip-rule="evenodd" d="M1.62853 34.1097H1.52276C1.52276 34.0569 1.49627 33.9774 1.49627 33.9507C1.49627 33.9244 1.49627 33.8717 1.4168 33.8717H1.25787V34.1097H1.1784V33.5538H1.4168C1.52276 33.5538 1.60204 33.5805 1.60204 33.686C1.60204 33.7655 1.57555 33.7922 1.54925 33.8183C1.57574 33.845 1.60204 33.8715 1.60204 33.9244V34.0302C1.60204 34.0569 1.60204 34.0569 1.62853 34.0569V34.1097ZM1.52276 33.7127C1.52276 33.6333 1.46978 33.6333 1.44329 33.6333H1.25787V33.7922H1.4168C1.46978 33.7922 1.52276 33.7655 1.52276 33.7127V33.7127ZM1.97289 33.8185C1.97289 33.501 1.70819 33.2359 1.36383 33.2359C1.04614 33.2359 0.78125 33.501 0.78125 33.8185C0.78125 34.1627 1.04614 34.4277 1.36383 34.4277C1.708 34.4276 1.97289 34.1627 1.97289 33.8185ZM1.89342 33.8185C1.89342 34.1099 1.65521 34.3216 1.36383 34.3216C1.07244 34.3216 0.860718 34.1097 0.860718 33.8185C0.860718 33.5538 1.07263 33.3154 1.36383 33.3154C1.65502 33.3154 1.89342 33.5538 1.89342 33.8185ZM34.5165 23.1208C34.5165 23.9153 34.0134 24.2855 33.113 24.2855H31.3921V23.4911H33.113C33.2719 23.4911 33.4043 23.4648 33.4575 23.412C33.5103 23.3588 33.5633 23.2793 33.5633 23.1736C33.5633 23.0674 33.5105 22.9617 33.4575 22.9089C33.4043 22.8557 33.2986 22.8294 33.1396 22.8294C32.319 22.8027 31.2861 22.8557 31.2861 21.6907C31.2861 21.1609 31.6303 20.5784 32.5571 20.5784H34.3311V21.3729H32.6893C32.5308 21.3729 32.4246 21.3729 32.3452 21.4256C32.2657 21.5051 32.2129 21.5846 32.2129 21.717C32.2129 21.8495 32.2924 21.9289 32.3981 21.9821C32.5043 22.0084 32.6102 22.0349 32.7427 22.0349H33.2191C33.7222 22.0349 34.0401 22.1407 34.252 22.3263C34.4106 22.5115 34.5165 22.7501 34.5165 23.1208V23.1208ZM30.7829 22.3263C30.5709 22.1407 30.2531 22.0349 29.75 22.0349H29.2735C29.1413 22.0349 29.0351 22.0082 28.9294 21.9821C28.8232 21.9289 28.7441 21.8495 28.7441 21.717C28.7441 21.5846 28.7704 21.5051 28.8764 21.4256C28.9558 21.3729 29.0616 21.3729 29.2205 21.3729H30.8623V20.5784H29.0883C28.1349 20.5784 27.817 21.1609 27.817 21.6907C27.817 22.8555 28.8499 22.8027 29.6709 22.8294C29.8294 22.8294 29.9356 22.8557 29.9884 22.9089C30.0411 22.9617 30.0945 23.0674 30.0945 23.1736C30.0945 23.2793 30.0413 23.3588 29.9884 23.412C29.9089 23.4648 29.8031 23.4911 29.6442 23.4911H27.923V24.2855H29.6442C30.5443 24.2855 31.0476 23.9151 31.0476 23.1208C31.0476 22.7501 30.9418 22.5115 30.7829 22.3263V22.3263ZM27.3934 23.5179H25.3018V22.7764H27.3406V22.0353H25.3018V21.3466H27.3934V20.5788H24.4279V24.2857H27.3934V23.5179ZM23.4745 20.7642C23.1831 20.6052 22.8389 20.5786 22.3888 20.5786H20.35V24.2855H21.2501V22.9352H22.2035C22.521 22.9352 22.7066 22.9618 22.8391 23.0941C22.998 23.2793 22.998 23.5972 22.998 23.8356V24.2855H23.8716V23.5705C23.8716 23.2264 23.8453 23.0674 23.7393 22.8822C23.6599 22.776 23.5013 22.6438 23.2894 22.5643C23.5274 22.4852 23.925 22.1674 23.925 21.5846C23.9248 21.1611 23.7658 20.9227 23.4745 20.7642V20.7642ZM18.4434 20.5786H15.61L14.4713 21.7967L13.3856 20.5786H9.81089V24.2855H13.3328L14.4715 23.0674L15.5572 24.2855H17.2784V23.0413H18.3906C19.1584 23.0413 19.9266 22.8294 19.9266 21.7967C19.9264 20.7905 19.1319 20.5786 18.4434 20.5786ZM22.7594 22.1146C22.6272 22.1674 22.4947 22.1674 22.3358 22.1674L21.2501 22.194V21.3464H22.3358C22.4947 21.3464 22.6537 21.3464 22.7594 21.4258C22.8656 21.479 22.9447 21.5848 22.9447 21.7437C22.9447 21.9027 22.8656 22.0351 22.7594 22.1146V22.1146ZM18.4434 22.2998H17.2782V21.3464H18.4434C18.7612 21.3464 18.973 21.479 18.973 21.7967C18.973 22.1146 18.7611 22.2998 18.4434 22.2998ZM15.0274 22.4321L16.4043 20.9759V23.9681L15.0274 22.4321ZM12.8825 23.5179H10.6847V22.7764H12.6441V22.0353H10.6847V21.3466H12.909L13.8887 22.4322L12.8825 23.5179V23.5179ZM32.0538 17.9041H30.7829L29.1146 15.1237V17.9041H27.3143L26.9697 17.0831H25.1162L24.772 17.9041H23.7392C23.3155 17.9041 22.7594 17.7981 22.4419 17.4803C22.1506 17.1626 21.9916 16.7389 21.9916 16.0769C21.9916 15.5208 22.0711 15.0177 22.468 14.6205C22.7327 14.3292 23.2096 14.1969 23.8184 14.1969H24.6657V14.9914H23.8184C23.5009 14.9914 23.3153 15.0444 23.1301 15.2033C22.9712 15.3623 22.8917 15.6534 22.8917 16.0506C22.8917 16.4477 22.9712 16.7391 23.1301 16.9246C23.2623 17.0568 23.5009 17.1098 23.739 17.1098H24.1363L25.4072 14.1971H26.7313L28.2141 17.6924V14.1969H29.5912L31.1535 16.7654V14.1969H32.0536V17.9041H32.0538V17.9041ZM21.5415 14.1969H20.6414V17.9041H21.5415V14.1969V14.1969ZM19.6613 14.3558C19.3699 14.1969 19.0524 14.1969 18.6023 14.1969H16.5632V17.9041H17.437V16.5535H18.3902C18.7081 16.5535 18.92 16.58 19.0522 16.7124C19.2112 16.8979 19.1845 17.2157 19.1845 17.4275V17.9041H20.0846V17.1626C20.0846 16.8449 20.0583 16.686 19.926 16.5005C19.8465 16.3946 19.6876 16.2621 19.5024 16.1829C19.7404 16.0769 20.1379 15.7857 20.1379 15.2031C20.1381 14.7795 19.9525 14.5411 19.6613 14.3558ZM15.9276 17.1363H13.8622V16.3948H15.9012V15.627H13.8622V14.9649H15.9276V14.1971H12.962V17.9043H15.9276V17.1363ZM12.2999 14.1969H10.8436L9.75791 16.7124L8.59276 14.1969H7.1629V17.6922L5.65358 14.1969H4.32968L2.74089 17.9041H3.69413L4.0383 17.0831H5.89179L6.23596 17.9041H8.03667V14.9914L9.33408 17.9041H10.1019L11.3995 14.9914V17.9041H12.2997V14.1969H12.2999ZM26.6522 16.2888L26.043 14.8325L25.4341 16.2888H26.6522ZM18.973 15.7064C18.8407 15.7859 18.7083 15.7859 18.5228 15.7859H17.437V14.9651H18.5227C18.6816 14.9651 18.8666 14.9651 18.9728 15.0181C19.0785 15.0976 19.1317 15.2035 19.1317 15.3623C19.1317 15.521 19.0787 15.6533 18.973 15.7064V15.7064ZM4.35598 16.2888L4.96505 14.8325L5.57411 16.2888H4.35598V16.2888ZM34.3048 2.57227H2.71421V15.9181L3.7999 13.4556H6.10352L6.42139 14.0647V13.4556H9.12235L9.73142 14.7795L10.314 13.4556H18.92C19.317 13.4556 19.6611 13.5351 19.9262 13.7468V13.4556H22.2828V13.7468C22.6798 13.5349 23.1829 13.4556 23.7656 13.4556H27.1814L27.4993 14.0647V13.4556H30.0148L30.3857 14.0647V13.4556H32.8481V18.6456H30.3592L29.8828 17.8513V18.6456H26.7845L26.4403 17.7983H25.6721L25.3279 18.6456H23.7129C23.0773 18.6456 22.6005 18.4867 22.283 18.3279V18.6456H18.4434V17.454C18.4434 17.295 18.4169 17.2685 18.3109 17.2685H18.1787V18.6454H10.7641V17.9834L10.4994 18.6454H8.93712L8.67242 18.0099V18.6454H5.68007L5.36239 17.7981H4.59439L4.25022 18.6454H2.71421V34.2951H34.3048V24.7887C33.9606 24.9476 33.4838 25.0271 33.0072 25.0271H30.7034V24.7092C30.4387 24.9213 29.9619 25.0271 29.5119 25.0271H22.2563V23.8356C22.2563 23.6767 22.23 23.6767 22.0974 23.6767H21.9651V25.0271H19.5818V23.6237C19.1849 23.8089 18.7346 23.8089 18.3374 23.8089H18.0725V25.0271H15.1598L14.4715 24.2326L13.7037 25.0271H9.0164V19.8372H13.7828L14.4713 20.6314L15.2128 19.8372H18.4169C18.7874 19.8372 19.3966 19.89 19.6613 20.1547V19.8372H22.521C22.8124 19.8372 23.3687 19.89 23.7392 20.1547V19.8372H28.0554V20.1549C28.2938 19.943 28.7441 19.8374 29.1411 19.8374H31.5507V20.1549C31.8157 19.9697 32.1862 19.8374 32.663 19.8374H34.3048V2.57227V2.57227Z" fill="#0077A6" />
</svg>
