<svg width="38" height="19" viewBox="0 0 38 19" fill="none" xmlns="http://www.w3.org/2000/svg">
	<path d="M0.625 0.861206H38V18.5216H0.625V0.861206Z" fill="black" />
	<path d="M8.3257 6.27108C8.68539 6.15118 9.06907 6.08723 9.46714 6.08723C11.2097 6.08723 12.6645 7.32459 12.997 8.96961L15.4669 8.46603C14.901 5.67158 12.4294 3.56775 9.46714 3.56775C8.78771 3.56775 8.13705 3.67806 7.52637 3.88268L8.3257 6.27108Z" fill="#FFCB05" />
	<path d="M5.41141 14.274L7.08201 12.386C6.33703 11.7258 5.86703 10.7618 5.86703 9.68749C5.86703 8.61479 6.33703 7.6508 7.08201 6.99215L5.41141 5.10254C4.14528 6.2248 3.34595 7.86342 3.34595 9.68749C3.34595 11.5132 4.14528 13.1518 5.41141 14.274" fill="#00A4E0" />
	<path d="M12.997 10.4099C12.6629 12.0533 11.2097 13.2891 9.46874 13.2891C9.06907 13.2891 8.68379 13.2251 8.3257 13.1036L7.52637 15.4952C8.13705 15.6983 8.78931 15.8086 9.46874 15.8086C12.4278 15.8086 14.8978 13.7079 15.4669 10.9167L12.997 10.4099Z" fill="#EF4123" />
	<path d="M17.6266 12.4643C17.545 12.3332 17.4363 12.1238 17.3692 11.9687C16.9775 11.0607 16.9599 10.1207 17.2893 9.21902C17.6522 8.22945 18.346 7.47329 19.2428 7.08641C20.3699 6.60202 21.6152 6.69634 22.6959 7.3374C23.3817 7.73067 23.8677 8.33816 24.237 9.19824C24.2834 9.30855 24.3249 9.42525 24.3665 9.52596L17.6266 12.4643ZM19.8775 8.54599C19.0766 8.8897 18.6641 9.64107 18.7504 10.5203L22.1396 9.06076C21.5561 8.37653 20.7983 8.14952 19.8775 8.54599V8.54599ZM22.5616 11.7209C22.56 11.7209 22.56 11.7225 22.56 11.7225L22.4897 11.6746C22.2867 12.0023 21.9717 12.2693 21.5737 12.4419C20.8159 12.7712 20.1141 12.6865 19.6089 12.2437L19.5626 12.314C19.5626 12.314 19.5626 12.3124 19.561 12.3124L18.7009 13.5993C18.9151 13.748 19.1437 13.8727 19.3835 13.9734C20.3331 14.3683 21.3051 14.3491 22.2627 13.9335C22.9549 13.6329 23.4984 13.1757 23.8693 12.5954L22.5616 11.7209ZM26.7213 5.1936V12.346L27.834 12.7968L27.2025 14.2708L25.9748 13.7592C25.6998 13.6393 25.5112 13.4571 25.3705 13.2508C25.2346 13.0414 25.1339 12.7521 25.1339 12.3652V5.1936H26.7213ZM29.6021 10.5251C29.6021 9.91604 29.8723 9.3693 30.2975 8.99841L29.1561 7.72588C28.3823 8.4101 27.8948 9.40926 27.8948 10.5219C27.8932 11.6362 28.3807 12.637 29.1529 13.3212L30.2927 12.0486C29.8691 11.6762 29.6021 11.1326 29.6021 10.5251V10.5251ZM31.6292 12.5538C31.4054 12.5538 31.188 12.5155 30.9866 12.4483L30.4414 14.0677C30.8139 14.1924 31.212 14.2612 31.6276 14.2612C33.4341 14.2628 34.9416 12.9807 35.2917 11.2781L33.6163 10.936C33.4261 11.8616 32.6092 12.5554 31.6292 12.5538V12.5538ZM31.634 6.78906C31.22 6.78906 30.8219 6.85621 30.4494 6.9793L30.9898 8.60034C31.1928 8.5332 31.4086 8.49643 31.6324 8.49643C32.614 8.49803 33.4325 9.19504 33.6179 10.1223L35.2933 9.78335C34.9496 8.07758 33.4421 6.79066 31.634 6.78906V6.78906Z" fill="white" />
</svg>
