<svg width="38" height="17" viewBox="0 0 38 17" fill="none" xmlns="http://www.w3.org/2000/svg">
<path d="M10.5504 0.459473H6.62909C4.89636 0.541368 3.48004 1.239 3.07109 2.67762C2.85785 3.4279 2.74049 4.2519 2.57375 5.02965C1.72607 8.98423 0.974418 13.0478 0.163574 16.9235H30.6928C33.053 16.9235 34.6737 16.4249 35.1115 14.5522C35.3149 13.6823 35.5098 12.6971 35.7045 11.7414C36.4633 8.01507 37.2227 4.28895 38 0.459473H10.5504Z" fill="#822124"/>
<path d="M10.2443 6.31078C10.4083 6.19785 10.6195 5.68353 10.3782 5.4694C10.3018 5.40161 10.174 5.38194 9.99563 5.41208C9.83022 5.44 9.73508 5.4962 9.67046 5.58419C9.56663 5.72563 9.47133 6.15233 9.63221 6.31085C9.78893 6.46514 10.1399 6.38257 10.2443 6.31078V6.31078ZM7.91062 5.4694C7.79312 6.23155 7.66077 6.97886 7.52804 7.72579C6.6759 7.73478 5.80586 7.76782 4.98395 7.70664C5.13918 6.97589 5.25052 6.20119 5.40478 5.4694H4.48661C4.15795 7.33347 3.85893 9.2273 3.49194 11.0531H4.42928C4.57626 10.1166 4.71382 9.17043 4.90745 8.28035C5.70663 8.26067 6.66446 8.22637 7.43245 8.2995C7.2741 9.22485 7.08277 10.117 6.93512 11.0531H7.87245C8.1737 9.16145 8.49092 7.28602 8.86719 5.4694H7.91062V5.4694ZM21.1667 7.07568C20.4375 6.78121 19.8641 7.27882 19.5982 7.74495C19.6585 7.53757 19.6833 7.29471 19.7322 7.07568H19.0053C18.8276 8.45335 18.5657 9.74674 18.3167 11.0531H19.1393C19.2546 10.2777 19.3043 9.23243 19.5601 8.49069C19.7645 7.89797 20.2994 7.39301 21.0712 7.66847C21.0819 7.44981 21.1445 7.2829 21.1667 7.07568V7.07568ZM21.6258 10.1161C21.5499 9.92026 21.5304 9.59698 21.5493 9.35115C21.5918 8.79867 21.7932 8.12599 22.1041 7.82142C22.533 7.40111 23.3798 7.47068 24.0552 7.70671C24.0761 7.47914 24.1219 7.27615 24.1509 7.0566C23.0432 6.87573 21.9921 6.98829 21.4347 7.57292C20.889 8.14522 20.5315 9.46059 20.7842 10.2882C21.0801 11.2567 22.4071 11.3094 23.4814 10.9384C23.5289 10.7437 23.5541 10.5267 23.5962 10.3265C23.009 10.6313 21.8867 10.7898 21.6258 10.1161V10.1161ZM30.8649 7.09476C30.1379 6.73139 29.5327 7.34111 29.2964 7.70664C29.3637 7.51909 29.3676 7.26791 29.4303 7.0756H28.7034C28.5074 8.44132 28.2712 9.76679 27.9957 11.053H28.8374C28.8427 10.5258 28.9463 10.1359 29.0286 9.61896C29.2045 8.51505 29.4628 7.30451 30.7503 7.6684C30.7929 7.48174 30.8106 7.26998 30.8649 7.09476ZM9.40263 7.07568C9.38035 7.07887 9.38184 7.1059 9.38347 7.133C9.20224 8.48795 8.95692 9.77896 8.69488 11.053H9.51738C9.71503 9.6889 9.94141 8.3537 10.2251 7.0756L9.40263 7.07568V7.07568ZM16.6332 6.9992C16.0389 7.04501 15.5365 7.21593 15.1795 7.592C14.7416 8.05315 14.387 9.07279 14.4909 10.0014C14.6391 11.3261 16.2891 11.2785 17.6088 10.9575C17.6313 10.725 17.6876 10.5262 17.7236 10.3073C17.18 10.5107 16.236 10.7945 15.6767 10.4413C15.2546 10.1743 15.2521 9.49875 15.3898 8.91145C16.2768 8.88324 17.1987 8.88859 18.0869 8.91145C18.1432 8.49522 18.3045 8.04142 18.1634 7.63031C17.9774 7.08756 17.3112 6.94693 16.6332 6.9992ZM17.4175 8.45245H15.4854C15.5466 8.00845 15.9462 7.52042 16.5758 7.49637C17.1684 7.47372 17.5926 7.71384 17.4175 8.45245V8.45245ZM13.5153 7.07568C12.8191 6.81425 11.9707 7.12631 11.6028 7.42316C11.6042 7.43622 11.5941 7.43801 11.5832 7.43897C11.5895 7.4337 11.5963 7.42843 11.6028 7.42316C11.6028 7.42206 11.6026 7.42097 11.6025 7.41989C11.6086 7.29226 11.6536 7.20331 11.6598 7.07568H10.9521C10.6571 9.03723 10.3074 10.9439 9.93829 12.8314H10.7608C10.8799 12.0963 10.9584 11.3208 11.1243 10.6324C11.3121 11.3564 12.5387 11.2181 13.0563 10.9383C14.1241 10.361 14.9478 7.61353 13.5153 7.07568V7.07568ZM12.865 10.3073C12.4249 10.7732 11.343 10.7662 11.2581 9.98218C11.2212 9.64109 11.3483 9.28344 11.4113 8.93054C11.4748 8.57333 11.5206 8.2306 11.5833 7.91705C12.0168 7.38796 13.2905 7.32404 13.4197 8.20387C13.5318 8.96773 13.2294 9.92145 12.865 10.3073V10.3073ZM33.9255 5.35469C33.855 5.97258 33.7607 6.56678 33.6386 7.133C31.621 6.49454 30.3836 7.97853 30.4059 9.81015C30.4103 10.1644 30.4713 10.5157 30.6928 10.7662C31.0748 11.1979 32.1683 11.3013 32.7205 10.9383C32.8273 10.868 32.9366 10.7402 33.0074 10.6515C33.0606 10.5848 33.1451 10.4099 33.1604 10.4603C33.1313 10.6543 33.0879 10.8341 33.084 11.053H33.83C33.9739 8.99127 34.4183 7.23034 34.7482 5.35461H33.9255V5.35469H33.9255ZM32.0892 10.6132C31.5355 10.6251 31.2601 10.2825 31.2474 9.71452C31.2254 8.71975 31.6619 7.61457 32.5483 7.51545C32.9609 7.46934 33.2597 7.56527 33.5621 7.66847C33.2845 8.7859 33.3847 10.5854 32.0892 10.6132V10.6132ZM24.9924 7.07568C24.9519 7.30288 24.8898 7.50847 24.8394 7.72579C25.3248 7.6041 26.8362 7.23108 26.9818 7.87874C27.0302 8.09391 26.9468 8.32252 26.8862 8.49069C25.5195 8.36128 24.4056 8.58825 24.1125 9.56149C23.9163 10.2134 24.1345 10.8549 24.5525 11.034C25.3576 11.3788 26.3368 10.9838 26.6758 10.4413C26.6406 10.629 26.6072 10.8189 26.6185 11.0531H27.3262C27.3337 10.3755 27.4324 9.827 27.5366 9.21728C27.6254 8.69807 27.7926 8.18405 27.7662 7.72579C27.7053 6.6763 25.966 7.04754 24.9924 7.07568V7.07568ZM26.3314 10.2882C25.9075 10.703 24.7177 10.8208 24.8394 9.82923C24.9404 9.00567 25.8375 8.83067 26.8095 8.94954C26.7373 9.40008 26.6544 9.97208 26.3314 10.2882V10.2882Z" fill="white"/>
</svg>
