<svg width="37" height="29" viewBox="0 0 37 29" fill="none" xmlns="http://www.w3.org/2000/svg">
	<path d="M23.5024 20.6279H13.4976V2.46887H23.5024V20.6279Z" fill="#6C6BBD" />
	<path d="M14.1327 11.5488C14.1327 7.86514 15.8404 4.58385 18.4997 2.46926C16.555 0.922964 14.1007 3.13019e-05 11.4334 3.13019e-05C5.11873 3.13019e-05 0 5.1705 0 11.5488C0 17.9271 5.11873 23.0975 11.4334 23.0975C14.1007 23.0975 16.555 22.1746 18.4997 20.6283C15.8404 18.5137 14.1327 15.2324 14.1327 11.5488Z" fill="#D32011" />
	<path d="M36.9999 11.5488C36.9999 17.9271 31.8812 23.0975 25.5666 23.0975C22.8992 23.0975 20.4449 22.1746 18.4995 20.6283C21.1596 18.5137 22.8673 15.2324 22.8673 11.5488C22.8673 7.86514 21.1596 4.58385 18.4995 2.46926C20.4449 0.922964 22.8992 3.13019e-05 25.5666 3.13019e-05C31.8812 3.13019e-05 36.9999 5.1705 36.9999 11.5488Z" fill="#0099DF" />
	<path d="M26.8875 25.7591C27.0206 25.7591 27.2118 25.7848 27.3579 25.8428L27.1543 26.4713C27.0148 26.4133 26.8752 26.3942 26.7414 26.3942C26.3096 26.3942 26.0937 26.6762 26.0937 27.1828V28.9023H25.4328V25.8362H26.0871V26.2084C26.2587 25.939 26.5066 25.7591 26.8875 25.7591ZM24.4463 26.4456H23.3667V27.8311C23.3667 28.1387 23.4743 28.3443 23.8051 28.3443C23.9767 28.3443 24.1926 28.2863 24.3889 28.1711L24.5793 28.7415C24.37 28.8891 24.0399 28.9794 23.7542 28.9794C22.9727 28.9794 22.7001 28.5558 22.7001 27.8436V26.4456H22.0836V25.8362H22.7001V24.9059H23.3667V25.8362H24.4463V26.4456ZM15.9921 27.0998C16.0627 26.6571 16.3287 26.3553 16.7991 26.3553C17.2244 26.3553 17.4977 26.6248 17.5675 27.0998H15.9921ZM18.2538 27.3693C18.2473 26.4133 17.6628 25.7591 16.8115 25.7591C15.9224 25.7591 15.3001 26.4133 15.3001 27.3693C15.3001 28.3436 15.9478 28.9787 16.8565 28.9787C17.3138 28.9787 17.7326 28.8634 18.1011 28.5492L17.7769 28.055C17.5232 28.2606 17.1989 28.3759 16.8943 28.3759C16.4691 28.3759 16.0816 28.1769 15.9863 27.6255H18.2407C18.2473 27.5418 18.2538 27.4588 18.2538 27.3693ZM21.156 26.6189C20.972 26.5029 20.5976 26.3553 20.2101 26.3553C19.8481 26.3553 19.6322 26.4904 19.6322 26.7151C19.6322 26.9199 19.8605 26.9779 20.1462 27.0161L20.4573 27.0609C21.1181 27.1578 21.518 27.4398 21.518 27.9787C21.518 28.5624 21.0098 28.9794 20.1338 28.9794C19.638 28.9794 19.1807 28.851 18.8187 28.5815L19.1298 28.0616C19.3523 28.2349 19.6831 28.3825 20.1403 28.3825C20.5911 28.3825 20.8324 28.2481 20.8324 28.0103C20.8324 27.8377 20.6609 27.7408 20.2988 27.6901L19.9877 27.6453C19.3079 27.5484 18.9394 27.2408 18.9394 26.7408C18.9394 26.1314 19.4352 25.7591 20.2036 25.7591C20.6863 25.7591 21.1247 25.8685 21.4417 26.08L21.156 26.6189ZM29.3019 26.3927C29.1659 26.3927 29.0401 26.417 28.9231 26.4647C28.8068 26.5132 28.7057 26.5807 28.6207 26.6673C28.5356 26.754 28.4687 26.8582 28.42 26.9794C28.3713 27.1005 28.3473 27.2342 28.3473 27.3795C28.3473 27.5257 28.3713 27.6586 28.42 27.7797C28.4687 27.9009 28.5356 28.0051 28.6207 28.0918C28.7057 28.1784 28.8068 28.2459 28.9231 28.2944C29.0401 28.3429 29.1659 28.3664 29.3019 28.3664C29.4378 28.3664 29.5643 28.3429 29.6806 28.2944C29.7977 28.2459 29.8994 28.1784 29.9845 28.0918C30.071 28.0051 30.1379 27.9009 30.1873 27.7797C30.236 27.6586 30.26 27.5257 30.26 27.3795C30.26 27.2342 30.236 27.1005 30.1873 26.9794C30.1379 26.8582 30.071 26.754 29.9845 26.6673C29.8994 26.5807 29.7977 26.5132 29.6806 26.4647C29.5643 26.417 29.4378 26.3927 29.3019 26.3927ZM29.3019 25.7591C29.5374 25.7591 29.7555 25.8002 29.9562 25.8832C30.1568 25.9654 30.3306 26.0792 30.4767 26.2239C30.6235 26.3685 30.7377 26.5396 30.8205 26.7364C30.9034 26.9339 30.9449 27.1483 30.9449 27.3795C30.9449 27.6108 30.9034 27.8252 30.8205 28.0227C30.7377 28.2195 30.6235 28.3913 30.4767 28.536C30.3306 28.6806 30.1568 28.7937 29.9562 28.8766C29.7555 28.9589 29.5374 29 29.3019 29C29.0663 29 28.8482 28.9589 28.6476 28.8766C28.4469 28.7937 28.2746 28.6806 28.1292 28.536C27.9838 28.3913 27.8697 28.2195 27.7868 28.0227C27.7039 27.8252 27.6625 27.6108 27.6625 27.3795C27.6625 27.1483 27.7039 26.9339 27.7868 26.7364C27.8697 26.5396 27.9838 26.3685 28.1292 26.2239C28.2746 26.0792 28.4469 25.9654 28.6476 25.8832C28.8482 25.8002 29.0663 25.7591 29.3019 25.7591ZM12.1333 27.3693C12.1333 26.8303 12.483 26.3876 13.0544 26.3876C13.6004 26.3876 13.9689 26.8113 13.9689 27.3693C13.9689 27.9273 13.6004 28.3502 13.0544 28.3502C12.483 28.3502 12.1333 27.9082 12.1333 27.3693ZM14.5912 27.3693V25.8362H13.9311V26.2084C13.721 25.9324 13.4041 25.7591 12.9722 25.7591C12.1209 25.7591 11.4543 26.4324 11.4543 27.3693C11.4543 28.3054 12.1209 28.9794 12.9722 28.9794C13.4041 28.9794 13.721 28.8062 13.9311 28.5301V28.9023H14.5912V27.3693ZM10.8698 28.9023V26.9779C10.8698 26.2532 10.4125 25.7657 9.67607 25.7591C9.28858 25.7525 8.88801 25.8744 8.60885 26.3046C8.39948 25.9647 8.0687 25.7591 7.60488 25.7591C7.28137 25.7591 6.96367 25.8553 6.71577 26.2143V25.8362H6.05566V28.9023H6.72231V27.2026C6.72231 26.6703 7.01456 26.3876 7.4653 26.3876C7.90367 26.3876 8.12613 26.6762 8.12613 27.196V28.9023H8.79278V27.2026C8.79278 26.6703 9.09811 26.3876 9.53576 26.3876C9.98722 26.3876 10.2031 26.6762 10.2031 27.196V28.9023H10.8698Z" fill="#110F0D" />
</svg>
