<svg width="37" height="29" viewBox="0 0 37 29" fill="none" xmlns="http://www.w3.org/2000/svg">
	<g clip-path="url(#clip0_3912_284)">
		<path d="M36.2708 28.6069V28.6814H36.3398C36.3528 28.6816 36.3656 28.6783 36.3768 28.6719C36.3813 28.6687 36.385 28.6644 36.3874 28.6594C36.3898 28.6544 36.3909 28.6489 36.3907 28.6434C36.3909 28.638 36.3898 28.6325 36.3874 28.6277C36.3849 28.6228 36.3813 28.6187 36.3768 28.6156C36.3657 28.6089 36.3528 28.6056 36.3398 28.6061H36.2708V28.6069ZM36.3406 28.5541C36.3702 28.5523 36.3994 28.5609 36.4235 28.5783C36.4331 28.5863 36.4407 28.5964 36.4458 28.6079C36.4508 28.6193 36.4531 28.6318 36.4525 28.6443C36.4529 28.6551 36.4511 28.6658 36.4471 28.6758C36.443 28.6858 36.437 28.6949 36.4292 28.7023C36.4107 28.7185 36.3874 28.7283 36.363 28.7301L36.4555 28.8363H36.3842L36.2991 28.7308H36.2716V28.8363H36.212V28.5543H36.3415L36.3406 28.5541ZM36.3221 28.9336C36.3533 28.9339 36.3843 28.9275 36.4129 28.9149C36.4405 28.903 36.4656 28.8858 36.4869 28.8644C36.5082 28.8431 36.5252 28.8178 36.537 28.7899C36.5613 28.7308 36.5613 28.6644 36.537 28.6054C36.5251 28.5776 36.5081 28.5523 36.4869 28.5308C36.4656 28.5094 36.4405 28.4923 36.4129 28.4803C36.3841 28.4684 36.3532 28.4625 36.3221 28.4628C36.2904 28.4625 36.259 28.4684 36.2296 28.4803C36.2013 28.4921 36.1757 28.5092 36.1539 28.5308C36.1212 28.5646 36.0991 28.6074 36.0903 28.6538C36.0815 28.7002 36.0864 28.7482 36.1045 28.7917C36.1158 28.8197 36.1326 28.8451 36.1539 28.8663C36.1757 28.8879 36.2014 28.905 36.2296 28.9168C36.2588 28.9294 36.2903 28.9357 36.3221 28.9354M36.3221 28.395C36.4034 28.3949 36.4815 28.427 36.5394 28.4844C36.5674 28.512 36.5897 28.5449 36.6049 28.5811C36.6208 28.6184 36.6289 28.6585 36.6289 28.699C36.6289 28.7395 36.6208 28.7796 36.6049 28.8169C36.5893 28.853 36.5671 28.8858 36.5394 28.9136C36.5111 28.9411 36.478 28.9631 36.442 28.9789C36.404 28.9951 36.3633 29.0033 36.3221 29.0031C36.2804 29.0034 36.2391 28.9952 36.2007 28.9789C36.1642 28.9635 36.1309 28.9414 36.1025 28.9136C36.0748 28.8848 36.0529 28.8509 36.0379 28.8137C36.0221 28.7765 36.014 28.7364 36.014 28.6959C36.014 28.6553 36.0221 28.6152 36.0379 28.578C36.0532 28.5417 36.0754 28.5088 36.1034 28.4812C36.1314 28.453 36.1648 28.4308 36.2016 28.416C36.24 28.3997 36.2813 28.3915 36.323 28.3918M7.99487 27.306C7.99487 26.7683 8.34452 26.3266 8.91599 26.3266C9.46211 26.3266 9.83063 26.7493 9.83063 27.306C9.83063 27.8627 9.46211 28.2854 8.91599 28.2854C8.34452 28.2854 7.99487 27.8437 7.99487 27.306M10.4532 27.306V25.7758H9.79289V26.1486C9.58347 25.8731 9.26582 25.7003 8.83385 25.7003C7.98285 25.7003 7.315 26.3728 7.315 27.3067C7.315 28.2406 7.98248 28.9131 8.83385 28.9131C9.26564 28.9131 9.58347 28.7401 9.79289 28.4648V28.8363H10.4524V27.306H10.4532ZM32.7627 27.306C32.7627 26.7683 33.1123 26.3266 33.684 26.3266C34.2306 26.3266 34.5986 26.7493 34.5986 27.306C34.5986 27.8627 34.2306 28.2854 33.684 28.2854C33.1125 28.2854 32.7627 27.8437 32.7627 27.306ZM35.2217 27.306V24.5476H34.5609V26.1486C34.3515 25.8731 34.0338 25.7003 33.6018 25.7003C32.7508 25.7003 32.083 26.3728 32.083 27.3067C32.083 28.2406 32.7505 28.9131 33.6018 28.9131C34.0338 28.9131 34.3515 28.7401 34.5609 28.4648V28.8363H35.2217V27.306ZM18.6479 26.2951C19.0734 26.2951 19.3467 26.5638 19.4164 27.037H17.8409C17.9114 26.5953 18.1776 26.2951 18.6481 26.2951M18.6612 25.6987C17.7714 25.6987 17.1489 26.351 17.1489 27.305C17.1489 28.2777 17.7964 28.9114 18.7054 28.9114C19.1628 28.9114 19.5816 28.7964 19.9501 28.4827L19.6266 27.9898C19.372 28.1948 19.0479 28.3098 18.7432 28.3098C18.3177 28.3098 17.9303 28.1113 17.835 27.5606H20.0896C20.0961 27.4778 20.1028 27.3943 20.1028 27.3048C20.0961 26.3512 19.5108 25.6985 18.6609 25.6985M26.6325 27.3048C26.6325 26.7672 26.9822 26.3254 27.5536 26.3254C28.0997 26.3254 28.4683 26.7481 28.4683 27.3048C28.4683 27.8615 28.0997 28.2842 27.5536 28.2842C26.9822 28.2842 26.6323 27.8425 26.6323 27.3048M29.0906 27.3048V25.7758H28.4307V26.1486C28.2206 25.8731 27.9036 25.7003 27.4717 25.7003C26.6207 25.7003 25.9528 26.3728 25.9528 27.3067C25.9528 28.2406 26.6203 28.9131 27.4717 28.9131C27.9036 28.9131 28.2206 28.7401 28.4307 28.4648V28.8363H29.0908V27.306L29.0906 27.3048ZM22.9038 27.3048C22.9038 28.2328 23.545 28.9112 24.5237 28.9112C24.981 28.9112 25.2857 28.8087 25.6152 28.5465L25.2981 28.0088C25.0502 28.1883 24.7899 28.2842 24.5026 28.2842C23.9755 28.2777 23.588 27.8938 23.588 27.3048C23.588 26.7159 23.9755 26.3322 24.5026 26.3254C24.7892 26.3254 25.0495 26.4214 25.2981 26.6009L25.6152 26.0632C25.2852 25.801 24.9805 25.6985 24.5237 25.6985C23.545 25.6985 22.9038 26.3767 22.9038 27.3048M31.4157 25.6985C31.0348 25.6985 30.7867 25.878 30.6152 26.1467V25.7758H29.9608V28.8346H30.6219V27.12C30.6219 26.6138 30.8377 26.3325 31.2694 26.3325C31.4107 26.3305 31.551 26.3566 31.6823 26.4095L31.8858 25.7825C31.7396 25.7246 31.5491 25.699 31.4153 25.699M13.7175 26.019C13.3998 25.8081 12.9621 25.699 12.4793 25.699C11.71 25.699 11.2148 26.0705 11.2148 26.6783C11.2148 27.177 11.5835 27.4847 12.2625 27.5807L12.5744 27.6254C12.9364 27.6767 13.1073 27.7726 13.1073 27.9454C13.1073 28.1819 12.8668 28.3169 12.4153 28.3169C11.9579 28.3169 11.6279 28.1696 11.4053 27.9969L11.0951 28.5155C11.4571 28.7843 11.9145 28.9125 12.4097 28.9125C13.2866 28.9125 13.7948 28.4965 13.7948 27.9141C13.7948 27.3764 13.3948 27.0952 12.734 26.9992L12.4228 26.9537C12.137 26.9164 11.908 26.8585 11.908 26.6535C11.908 26.4298 12.1239 26.2952 12.4861 26.2952C12.8737 26.2952 13.2489 26.4425 13.4328 26.5575L13.7186 26.0198L13.7175 26.019ZM22.2369 25.6996C21.856 25.6996 21.6079 25.8791 21.4372 26.1478V25.7758H20.7828V28.8346H21.4431V27.12C21.4431 26.6138 21.659 26.3325 22.0906 26.3325C22.2319 26.3305 22.3723 26.3566 22.5035 26.4095L22.707 25.7825C22.5608 25.7246 22.3703 25.699 22.2365 25.699M16.6026 25.7758H15.5229V24.8479H14.8554V25.7758H14.2395V26.3838H14.8554V27.7792C14.8554 28.4889 15.1288 28.9116 15.9099 28.9116C16.1965 28.9116 16.5265 28.8221 16.7359 28.6751L16.5452 28.1055C16.3482 28.2205 16.1323 28.2785 15.9606 28.2785C15.6306 28.2785 15.5229 28.0735 15.5229 27.7665V26.3843H16.6026V25.7758ZM6.73114 28.8354V26.9157C6.73114 26.1927 6.27382 25.7063 5.53659 25.6998C5.14902 25.6933 4.74923 25.8148 4.46933 26.244C4.25991 25.9048 3.92987 25.6998 3.46589 25.6998C3.14158 25.6998 2.82468 25.7958 2.57659 26.154V25.7758H1.91577V28.8346H2.58177V27.1386C2.58177 26.6076 2.87407 26.3254 3.32547 26.3254C3.76392 26.3254 3.98574 26.6134 3.98574 27.1319V28.8342H4.65322V27.1382C4.65322 26.6072 4.95791 26.3251 5.39618 26.3251C5.84702 26.3251 6.06218 26.613 6.06218 27.1315V28.8339L6.73114 28.8354Z" fill="#231F20" />
		<path d="M36.6475 18.6602V18.2129H36.5319L36.3981 18.5199L36.2651 18.2129H36.1491V18.6602H36.2313V18.3232L36.3563 18.614H36.4414L36.5665 18.3225V18.6602H36.6479H36.6475ZM35.914 18.6602V18.2895H36.062V18.214H35.6838V18.2895H35.8318V18.6602H35.9132H35.914Z" fill="#F79410" />
		<path d="M23.5057 20.5786H13.4998V2.46289H23.5058L23.5057 20.5786Z" fill="#FF5F00" />
		<path d="M14.134 11.5209C14.134 7.84617 15.8419 4.57267 18.5015 2.46309C16.4883 0.863892 13.9984 -0.00404782 11.4347 -0.00023161C5.11932 -0.00023161 0 5.15789 0 11.5209C0 17.884 5.11932 23.0421 11.4347 23.0421C13.9984 23.046 16.4885 22.178 18.5017 20.5788C15.8423 18.4696 14.134 15.1959 14.134 11.5209Z" fill="#EB001B" />
		<path d="M37.0045 11.5212C37.0045 17.8842 31.8852 23.0423 25.5699 23.0423C23.0058 23.0461 20.5155 22.1782 18.502 20.579C21.1623 18.4694 22.8702 15.1961 22.8702 11.5212C22.8702 7.84623 21.1623 4.57292 18.502 2.46333C20.5155 0.864184 23.0057 -0.00373679 25.5697 1.20938e-05C31.885 1.20938e-05 37.0044 5.15814 37.0044 11.5212" fill="#F79E1B" />
	</g>
	<defs>
		<clipPath id="clip0_3912_284">
			<rect width="37" height="29" fill="white" />
		</clipPath>
	</defs>
</svg>
